# xmcd CD database file
#
# Track frame offsets:
#	150
#	26205
#	51229
#	85749
#	119558
#	162160
#	204162
#
# Disc length: 3300 seconds
#
# Revision: 0
# Processed by: cddbd v1.5.2PL0 Copyright (c) Steve Scherf et al.
# Submitted via: CDex 1.51
#
DISCID=570ce207
DTITLE=Runestone - Pendragon
DYEAR=2011
DGENRE=New Age
TTITLE0=The Court Of Pendragon
TTITLE1=Merlin
TTITLE2=Promise And Prophecy
TTITLE3=Uther's Quest
TTITLE4=Of Swords And Sorcery
TTITLE5=Lady Igraine
TTITLE6=Seas Of Tintagel
EXTD=YEAR: 2011
EXTT0=
EXTT1=
EXTT2=
EXTT3=
EXTT4=
EXTT5=
EXTT6=
PLAYORDER=
